<svg width="29" height="29" viewBox="0 0 29 29" fill="none" xmlns="http://www.w3.org/2000/svg">
<path id="call" d="M11.4636 8.01841L11.4602 8.0073L11.4565 7.99627C10.9758 6.55419 10.7344 5.04983 10.7344 3.47852C10.7344 2.84444 10.5124 2.26222 10.0548 1.80461C9.59716 1.347 9.01494 1.125 8.38086 1.125H3.61133C2.95847 1.125 2.28252 1.25846 1.75964 1.69767C1.20337 2.16494 1 2.82301 1 3.47852C1 10.1507 3.40746 15.9037 8.18938 20.6856C12.9713 25.4675 18.7243 27.875 25.3965 27.875C26.052 27.875 26.7101 27.6716 27.1773 27.1154C27.6165 26.5925 27.75 25.9165 27.75 25.2637V20.4941C27.75 19.8601 27.528 19.2778 27.0704 18.8202C26.6128 18.3626 26.0306 18.1406 25.3965 18.1406C23.8403 18.1406 22.3497 17.9038 20.9203 17.4323C20.6294 17.3135 20.314 17.3027 20.1113 17.3027C19.4772 17.3027 18.895 17.5247 18.4374 17.9823L18.3951 18.0246L18.3582 18.0716L16.7379 20.1339C13.1938 18.2588 10.5529 15.647 8.78356 12.2923L10.8453 10.4819L10.8697 10.4605L10.8927 10.4376C11.2018 10.1285 11.4306 9.75058 11.5313 9.30756C11.631 8.86864 11.5904 8.43058 11.4636 8.01841Z" stroke="black" stroke-width="2"/>
</svg>
