<svg width="33" height="27" viewBox="0 0 33 27" fill="none" xmlns="http://www.w3.org/2000/svg">
<path id="email" d="M15.8446 12.9942L16.375 13.3261L16.9054 12.9942L26.3965 7.05537V7.46482L16.375 13.677L6.35352 7.46482V7.05537L15.8446 12.9942ZM2.68512 24.3619L2.69868 24.3766L2.71282 24.3907C3.44208 25.12 4.3349 25.5215 5.35352 25.5215H27.3965C28.4119 25.5215 29.2926 25.1214 29.9867 24.3766C30.7071 23.65 31.1035 22.7621 31.1035 21.75V5.25C31.1035 4.23792 30.7071 3.35004 29.9867 2.62337C29.2926 1.8786 28.4119 1.47852 27.3965 1.47852H5.35352C4.3349 1.47852 3.44208 1.88003 2.71282 2.6093L2.69868 2.62344L2.68512 2.63813C2.00663 3.37316 1.64648 4.25709 1.64648 5.25V21.75C1.64648 22.7429 2.00663 23.6268 2.68512 24.3619Z" stroke="black" stroke-width="2"/>
</svg>
