<svg width="24" height="34" viewBox="0 0 24 34" fill="none" xmlns="http://www.w3.org/2000/svg">
<path id="location_on" d="M14.0302 10.6742L14.0523 10.6977L14.0758 10.7198C14.561 11.1746 14.791 11.7051 14.791 12.375C14.791 13.0468 14.5586 13.6112 14.0527 14.1171C13.6033 14.5665 13.0661 14.791 12.375 14.791C11.6937 14.791 11.1292 14.5719 10.6334 14.1166C10.1781 13.6208 9.95898 13.0563 9.95898 12.375C9.95898 11.6839 10.1835 11.1467 10.6329 10.6973C11.1388 10.1914 11.7032 9.95898 12.375 9.95898C13.0449 9.95898 13.5754 10.189 14.0302 10.6742ZM14.1344 29.8182L14.1551 29.7962L14.1745 29.773C14.8435 28.9702 15.6341 27.9148 16.5439 26.6152C17.5003 25.2674 18.4554 23.8347 19.4091 22.3173C20.3897 20.7573 21.213 19.0885 21.8798 17.3124C22.5948 15.5223 22.9785 13.8706 22.9785 12.375C22.9785 9.44795 21.9291 6.9363 19.8497 4.90027C17.8137 2.82089 15.3021 1.77148 12.375 1.77148C9.44464 1.77148 6.91326 2.82292 4.83586 4.90032C2.7966 6.93958 1.77148 9.45154 1.77148 12.375C1.77148 13.8718 2.15593 15.5464 2.87116 17.3792C3.57414 19.1806 4.34705 20.8166 5.19197 22.2841L5.201 22.2998L5.2106 22.3152C6.08614 23.716 7.08993 25.1777 8.22069 26.6998L8.22062 26.6999L8.22908 26.711C9.34502 28.1703 10.1305 29.1745 10.5755 29.7085L10.5893 29.7251L10.6038 29.741C11.0304 30.2103 11.3669 30.589 11.6157 30.8793L12.3402 31.7245L13.1032 30.9139L14.1344 29.8182Z" stroke="black" stroke-width="2"/>
</svg>
